/* XPM */
static char *noname[] = {
/* width height ncolors chars_per_pixel */
"17 16 6 1",
/* colors */
"` c #000000",
"a c #00FFFF",
"b c #00FF00",
"c c #FF00FF",
"d c #FF0000",
"e c #FFFF00",
/* pixels */
"`d`````d``aaaaa``",
"`ddd`ddd`a```````",
"`d``d``d`a```````",
"`d`````d``aaaaa``",
"`d`````d```````a`",
"`d`````d```````a`",
"`d`````d``aaaaa``",
"`````````````````",
"bbbb``eeee`ccccc`",
"b```be````ce`````",
"b``e`b````c`e````",
"b``e`b`````ccccc`",
"b``e`b``````e```c",
"b```be````ee````c",
"bbbb``eeee`ccccc`",
"`````````````````"
};
