P3
10 16
65535
65535 65535 0  65535 65535 0  0 0 0  0 0 0  0 0 0  0 0 0
0 0 0  0 0 0  0 0 0  0 0 0
65535 65535 0  65535 65535 0  0 0 0  0 0 0  0 0 0  0 0 0
65535 65535 0  0 0 0  0 0 0  0 0 0
65535 65535 0  65535 65535 0  0 0 0  0 0 0  0 0 0  65535 65535 0
65535 65535 0  0 0 0  0 0 0  0 0 0
65535 65535 0  65535 65535 0  0 0 0  0 0 0  65535 65535 0  65535 65535 0
65535 65535 0  0 0 0  0 0 0  0 0 0
65535 65535 0  65535 65535 0  0 0 0  65535 65535 0  65535 65535 0  65535 65535 0
65535 65535 0  0 0 0  0 0 0  0 0 0
65535 65535 0  65535 65535 0  0 0 0  65535 65535 0  65535 65535 0  65535 65535 0
65535 65535 0  0 0 0  0 0 0  0 0 0
65535 65535 0  65535 65535 0  65535 65535 0  65535 65535 0  0 0 0  65535 65535 0
65535 65535 0  0 0 0  0 0 0  0 0 0
65535 65535 0  65535 65535 0  65535 65535 0  65535 65535 0  0 0 0  65535 65535 0
65535 65535 0  0 0 0  0 0 0  0 0 0
65535 65535 0  65535 65535 0  65535 65535 0  0 0 0  0 0 0  65535 65535 0
65535 65535 0  0 0 0  0 0 0  0 0 0
65535 65535 0  65535 65535 0  0 0 0  0 0 0  0 0 0  65535 65535 0
65535 65535 0  0 0 0  0 0 0  0 0 0
65535 65535 0  0 0 0  0 0 0  0 0 0  0 0 0  65535 65535 0
65535 65535 0  0 0 0  0 0 0  0 0 0
0 0 0  0 0 0  0 0 0  0 0 0  0 0 0  65535 65535 0
65535 65535 0  0 0 0  0 0 0  0 0 0
0 0 0  0 0 0  65535 65535 0  65535 65535 0  0 0 0  65535 65535 0
65535 65535 0  0 0 0  65535 65535 0  65535 65535 0
0 0 0  0 0 0  0 0 0  65535 65535 0  65535 65535 0  65535 65535 0
65535 65535 0  65535 65535 0  65535 65535 0  0 0 0
0 0 0  0 0 0  0 0 0  0 0 0  65535 65535 0  65535 65535 0
65535 65535 0  65535 65535 0  0 0 0  0 0 0
0 0 0  0 0 0  0 0 0  0 0 0  0 0 0  65535 65535 0
65535 65535 0  0 0 0  0 0 0  0 0 0
