/* XPM */
static char *noname[] = {
/* width height ncolors chars_per_pixel */
"17 16 7 1",
/* colors */
"` c #000000",
"a c #00FFFF",
"b c #00FF00",
"c c #FF00FF",
"d c #FF0000",
"e c #FFFF00",
"f c #0000FF",
/* pixels */
"`````````````````",
"ddddddddddddd````",
"dbbbbbbbbbbbddd``",
"dbccccbccccbdeed`",
"dbccccbcbbbbdeed`",
"dbcbbbbcbbbbdeed`",
"dbcbbbbccccbded``",
"dbbbbbbbbbbbddfff",
"dddddddddddddaaff",
"`faddddddddaaafaf",
"ffffffffffffffaaf",
"faaaaaaaaaaaafaaf",
"faaaaaafffffafaf`",
"faaaaaaaaaaaaff``",
"ffffffffffffff```",
"`````````````````"
};
