/* XPM */
static char *noname[] = {
/* width height ncolors chars_per_pixel */
"52 61 5 1",
/* colors */
"` c #000000",
"a c #FF0000",
"b c #FFFFFF",
"c c #FFFF00",
"d c #0000FF",
/* pixels */
"dddddddddddddddddddddd```````ddddddddddddddddddddddd",
"dddddddddddddddddddd```````````ddddddddddddddddddddd",
"ddddddddddddddddddd`````````````dddddddddddddddddddd",
"dddddddddddddddddd```````````````ddddddddddddddddddd",
"ddddddddddddddddd`````````````````dddddddddddddddddd",
"ddddddddddddddddd`````````````````dddddddddddddddddd",
"ddddddddddddddddd``````````````````ddddddddddddddddd",
"ddddddddddddddddd``````````````````ddddddddddddddddd",
"ddddddddddddddddd``````````````````ddddddddddddddddd",
"ddddddddddddddddd``bb`````bbbb`````ddddddddddddddddd",
"ddddddddddddddddd``bbb```bbbbb`````ddddddddddddddddd",
"ddddddddddddddddd`b``b```bb``bb````ddddddddddddddddd",
"ddddddddddddddddd`b``````b````b````ddddddddddddddddd",
"ddddddddddddddddd`````cccc````b````ddddddddddddddddd",
"ddddddddddddddddd``b`cccccca`b``````dddddddddddddddd",
"ddddddddddddddddd``acccccccccc``````dddddddddddddddd",
"ddddddddddddddddd``cccccccccccc`````dddddddddddddddd",
"ddddddddddddddddd``ccccccccccca`````dddddddddddddddd",
"ddddddddddddddddd```ccccccaccc``````dddddddddddddddd",
"ddddddddddddddddd``bacccaccccbb``````ddddddddddddddd",
"ddddddddddddddddd``bbacccacbbbb```````dddddddddddddd",
"ddddddddddddddddd``bbbaaccbbbbbb``````dddddddddddddd",
"dddddddddddddddd```bbbbbbbbbbbbb```````ddddddddddddd",
"ddddddddddddddd```bbbbbbbbbbbbbbb``````ddddddddddddd",
"dddddddddddddd```bbbbbbbbbbbbbbbb```````dddddddddddd",
"dddddddddddddd```bbbbbbbbbbbbbbbbb```````ddddddddddd",
"ddddddddddddd```bbbbbbbbbbbbbbbbbb````````dddddddddd",
"dddddddddddd````bbbbbbbbbbbbbbbbbb````````dddddddddd",
"dddddddddddd````bbbbbbbbbbbbbbbbbbb````````ddddddddd",
"ddddddddddd````bbbbbbbbbbbbbbbbbbbb`````````dddddddd",
"ddddddddddd````bbbbbbbbbbbbbbbbbbbbb````````dddddddd",
"ddddddddddd```bbbbbbbbbbbbbbbbbbbbbb````````dddddddd",
"dddddddddd````bbbbbbbbbbbbbbbbbbbbbbb````````ddddddd",
"dddddddddd```bbbbbbbbbbbbbbbbbbbbbbbb````````ddddddd",
"ddddddddd````bbbbbbbbbbbbbbbbbbbbbbbb````````ddddddd",
"ddddddddd````bbbbbbbbbbbbbbbbbbbbbbbb`````````dddddd",
"ddddddddd```bbbbbbbbbbbbbbbbbbbbbbbbb`````````dddddd",
"dddddddd````bbbbbbbbbbbbbbbbbbbbbbbbb`````````dddddd",
"ddddddd`````bbbbbbbbbbbbbbbbbbbbbbbbb`````````dddddd",
"ddddddd`````bbbbbbbbbbbbbbbbbbbbbbbbb`````````dddddd",
"ddddddd`````bbbbbbbbbbbbbbbbbbbbbbbbb`````````dddddd",
"ddddddd``c``bbbbbbbbbbbbbbbbbbbbbbbbb`````````dddddd",
"dddddddcccc``bbbbbbbbbbbbbbbbbbbbbbcc`````````dddddd",
"dddddddccccc``bbbbbbbbbbbbbbbbbbbbcccc```````cdddddd",
"ddddddccccccc``bbbbbbbbbbbbbbbbbbbccca``````ccaddddd",
"dddddcccccccca``bbbbbbbbbbbbbbbbbbccca`````cccaddddd",
"dacccccccccccc```bbbbbbbbbbbbbbbbbccccaa`aaccccddddd",
"acccccccccccccc````bbbbbbbbbbbbbbbcccccccccccccadddd",
"acccccccccccccc````bbbbbbbbbbbbbbbccccccccccccccdddd",
"accccccccccccccc````bbbbbbbbbbbbbbaccccccccccccccadd",
"daccccccccccccccc``bbbbbbbbbbbbbb``ccccccccccccccccd",
"daccccccccccccccccbbbbbbbbbbbbbb``accccccccccccccccc",
"acccccccccccccccccbbbbbbbbbbbbb```accccccccccccccccd",
"acccccccccccccccccabbbbbbbbbb`````accccccccccccccadd",
"dacccccccccccccccca``bbbb`````````acccccccccccccdddd",
"dacccccccccccccccca```````````````acccccccccccaddddd",
"ddaacccccccccccccca```````````````acccccccccaddddddd",
"ddddddaaaacccccccaddd```````````dddaccccccaddddddddd",
"ddddddddddaaaaaaaddddddddddddddddddaaacaaddddddddddd",
"ddddddddddddddadddddddddddddddddddddaaaadddddddddddd",
"dddddddddddddddddddddddddddddddddddddddddddddddddddd"
};
