P3
52 61
65535
0 0 65535  0 0 65535  0 0 65535  0 0 65535  0 0 65535  0 0 65535
0 0 65535  0 0 65535  0 0 65535  0 0 65535  0 0 65535  0 0 65535
0 0 65535  0 0 65535  0 0 65535  0 0 65535  0 0 65535  0 0 65535
0 0 65535  0 0 65535  0 0 65535  0 0 65535  0 0 0  0 0 0
0 0 0  0 0 0  0 0 0  0 0 0  0 0 0  0 0 65535
0 0 65535  0 0 65535  0 0 65535  0 0 65535  0 0 65535  0 0 65535
0 0 65535  0 0 65535  0 0 65535  0 0 65535  0 0 65535  0 0 65535
0 0 65535  0 0 65535  0 0 65535  0 0 65535  0 0 65535  0 0 65535
0 0 65535  0 0 65535  0 0 65535  0 0 65535
0 0 65535  0 0 65535  0 0 65535  0 0 65535  0 0 65535  0 0 65535
0 0 65535  0 0 65535  0 0 65535  0 0 65535  0 0 65535  0 0 65535
0 0 65535  0 0 65535  0 0 65535  0 0 65535  0 0 65535  0 0 65535
0 0 65535  0 0 65535  0 0 0  0 0 0  0 0 0  0 0 0
0 0 0  0 0 0  0 0 0  0 0 0  0 0 0  0 0 0
0 0 0  0 0 65535  0 0 65535  0 0 65535  0 0 65535  0 0 65535
0 0 65535  0 0 65535  0 0 65535  0 0 65535  0 0 65535  0 0 65535
0 0 65535  0 0 65535  0 0 65535  0 0 65535  0 0 65535  0 0 65535
0 0 65535  0 0 65535  0 0 65535  0 0 65535
0 0 65535  0 0 65535  0 0 65535  0 0 65535  0 0 65535  0 0 65535
0 0 65535  0 0 65535  0 0 65535  0 0 65535  0 0 65535  0 0 65535
0 0 65535  0 0 65535  0 0 65535  0 0 65535  0 0 65535  0 0 65535
0 0 65535  0 0 0  0 0 0  0 0 0  0 0 0  0 0 0
0 0 0  0 0 0  0 0 0  0 0 0  0 0 0  0 0 0
0 0 0  0 0 0  0 0 65535  0 0 65535  0 0 65535  0 0 65535
0 0 65535  0 0 65535  0 0 65535  0 0 65535  0 0 65535  0 0 65535
0 0 65535  0 0 65535  0 0 65535  0 0 65535  0 0 65535  0 0 65535
0 0 65535  0 0 65535  0 0 65535  0 0 65535
0 0 65535  0 0 65535  0 0 65535  0 0 65535  0 0 65535  0 0 65535
0 0 65535  0 0 65535  0 0 65535  0 0 65535  0 0 65535  0 0 65535
0 0 65535  0 0 65535  0 0 65535  0 0 65535  0 0 65535  0 0 65535
0 0 0  0 0 0  0 0 0  0 0 0  0 0 0  0 0 0
0 0 0  0 0 0  0 0 0  0 0 0  0 0 0  0 0 0
0 0 0  0 0 0  0 0 0  0 0 65535  0 0 65535  0 0 65535
0 0 65535  0 0 65535  0 0 65535  0 0 65535  0 0 65535  0 0 65535
0 0 65535  0 0 65535  0 0 65535  0 0 65535  0 0 65535  0 0 65535
0 0 65535  0 0 65535  0 0 65535  0 0 65535
0 0 65535  0 0 65535  0 0 65535  0 0 65535  0 0 65535  0 0 65535
0 0 65535  0 0 65535  0 0 65535  0 0 65535  0 0 65535  0 0 65535
0 0 65535  0 0 65535  0 0 65535  0 0 65535  0 0 65535  0 0 0
0 0 0  0 0 0  0 0 0  0 0 0  0 0 0  0 0 0
0 0 0  0 0 0  0 0 0  0 0 0  0 0 0  0 0 0
0 0 0  0 0 0  0 0 0  0 0 0  0 0 65535  0 0 65535
0 0 65535  0 0 65535  0 0 65535  0 0 65535  0 0 65535  0 0 65535
0 0 65535  0 0 65535  0 0 65535  0 0 65535  0 0 65535  0 0 65535
0 0 65535  0 0 65535  0 0 65535  0 0 65535
0 0 65535  0 0 65535  0 0 65535  0 0 65535  0 0 65535  0 0 65535
0 0 65535  0 0 65535  0 0 65535  0 0 65535  0 0 65535  0 0 65535
0 0 65535  0 0 65535  0 0 65535  0 0 65535  0 0 65535  0 0 0
0 0 0  0 0 0  0 0 0  0 0 0  0 0 0  0 0 0
0 0 0  0 0 0  0 0 0  0 0 0  0 0 0  0 0 0
0 0 0  0 0 0  0 0 0  0 0 0  0 0 65535  0 0 65535
0 0 65535  0 0 65535  0 0 65535  0 0 65535  0 0 65535  0 0 65535
0 0 65535  0 0 65535  0 0 65535  0 0 65535  0 0 65535  0 0 65535
0 0 65535  0 0 65535  0 0 65535  0 0 65535
0 0 65535  0 0 65535  0 0 65535  0 0 65535  0 0 65535  0 0 65535
0 0 65535  0 0 65535  0 0 65535  0 0 65535  0 0 65535  0 0 65535
0 0 65535  0 0 65535  0 0 65535  0 0 65535  0 0 65535  0 0 0
0 0 0  0 0 0  0 0 0  0 0 0  0 0 0  0 0 0
0 0 0  0 0 0  0 0 0  0 0 0  0 0 0  0 0 0
0 0 0  0 0 0  0 0 0  0 0 0  0 0 0  0 0 65535
0 0 65535  0 0 65535  0 0 65535  0 0 65535  0 0 65535  0 0 65535
0 0 65535  0 0 65535  0 0 65535  0 0 65535  0 0 65535  0 0 65535
0 0 65535  0 0 65535  0 0 65535  0 0 65535
0 0 65535  0 0 65535  0 0 65535  0 0 65535  0 0 65535  0 0 65535
0 0 65535  0 0 65535  0 0 65535  0 0 65535  0 0 65535  0 0 65535
0 0 65535  0 0 65535  0 0 65535  0 0 65535  0 0 65535  0 0 0
0 0 0  0 0 0  0 0 0  0 0 0  0 0 0  0 0 0
0 0 0  0 0 0  0 0 0  0 0 0  0 0 0  0 0 0
0 0 0  0 0 0  0 0 0  0 0 0  0 0 0  0 0 65535
0 0 65535  0 0 65535  0 0 65535  0 0 65535  0 0 65535  0 0 65535
0 0 65535  0 0 65535  0 0 65535  0 0 65535  0 0 65535  0 0 65535
0 0 65535  0 0 65535  0 0 65535  0 0 65535
0 0 65535  0 0 65535  0 0 65535  0 0 65535  0 0 65535  0 0 65535
0 0 65535  0 0 65535  0 0 65535  0 0 65535  0 0 65535  0 0 65535
0 0 65535  0 0 65535  0 0 65535  0 0 65535  0 0 65535  0 0 0
0 0 0  0 0 0  0 0 0  0 0 0  0 0 0  0 0 0
0 0 0  0 0 0  0 0 0  0 0 0  0 0 0  0 0 0
0 0 0  0 0 0  0 0 0  0 0 0  0 0 0  0 0 65535
0 0 65535  0 0 65535  0 0 65535  0 0 65535  0 0 65535  0 0 65535
0 0 65535  0 0 65535  0 0 65535  0 0 65535  0 0 65535  0 0 65535
0 0 65535  0 0 65535  0 0 65535  0 0 65535
0 0 65535  0 0 65535  0 0 65535  0 0 65535  0 0 65535  0 0 65535
0 0 65535  0 0 65535  0 0 65535  0 0 65535  0 0 65535  0 0 65535
0 0 65535  0 0 65535  0 0 65535  0 0 65535  0 0 65535  0 0 0
0 0 0  65535 65535 65535  65535 65535 65535  0 0 0  0 0 0  0 0 0
0 0 0  0 0 0  65535 65535 65535  65535 65535 65535  65535 65535 65535  65535 65535 65535
0 0 0  0 0 0  0 0 0  0 0 0  0 0 0  0 0 65535
0 0 65535  0 0 65535  0 0 65535  0 0 65535  0 0 65535  0 0 65535
0 0 65535  0 0 65535  0 0 65535  0 0 65535  0 0 65535  0 0 65535
0 0 65535  0 0 65535  0 0 65535  0 0 65535
0 0 65535  0 0 65535  0 0 65535  0 0 65535  0 0 65535  0 0 65535
0 0 65535  0 0 65535  0 0 65535  0 0 65535  0 0 65535  0 0 65535
0 0 65535  0 0 65535  0 0 65535  0 0 65535  0 0 65535  0 0 0
0 0 0  65535 65535 65535  65535 65535 65535  65535 65535 65535  0 0 0  0 0 0
0 0 0  65535 65535 65535  65535 65535 65535  65535 65535 65535  65535 65535 65535  65535 65535 65535
0 0 0  0 0 0  0 0 0  0 0 0  0 0 0  0 0 65535
0 0 65535  0 0 65535  0 0 65535  0 0 65535  0 0 65535  0 0 65535
0 0 65535  0 0 65535  0 0 65535  0 0 65535  0 0 65535  0 0 65535
0 0 65535  0 0 65535  0 0 65535  0 0 65535
0 0 65535  0 0 65535  0 0 65535  0 0 65535  0 0 65535  0 0 65535
0 0 65535  0 0 65535  0 0 65535  0 0 65535  0 0 65535  0 0 65535
0 0 65535  0 0 65535  0 0 65535  0 0 65535  0 0 65535  0 0 0
65535 65535 65535  0 0 0  0 0 0  65535 65535 65535  0 0 0  0 0 0
0 0 0  65535 65535 65535  65535 65535 65535  0 0 0  0 0 0  65535 65535 65535
65535 65535 65535  0 0 0  0 0 0  0 0 0  0 0 0  0 0 65535
0 0 65535  0 0 65535  0 0 65535  0 0 65535  0 0 65535  0 0 65535
0 0 65535  0 0 65535  0 0 65535  0 0 65535  0 0 65535  0 0 65535
0 0 65535  0 0 65535  0 0 65535  0 0 65535
0 0 65535  0 0 65535  0 0 65535  0 0 65535  0 0 65535  0 0 65535
0 0 65535  0 0 65535  0 0 65535  0 0 65535  0 0 65535  0 0 65535
0 0 65535  0 0 65535  0 0 65535  0 0 65535  0 0 65535  0 0 0
65535 65535 65535  0 0 0  0 0 0  0 0 0  0 0 0  0 0 0
0 0 0  65535 65535 65535  0 0 0  0 0 0  0 0 0  0 0 0
65535 65535 65535  0 0 0  0 0 0  0 0 0  0 0 0  0 0 65535
0 0 65535  0 0 65535  0 0 65535  0 0 65535  0 0 65535  0 0 65535
0 0 65535  0 0 65535  0 0 65535  0 0 65535  0 0 65535  0 0 65535
0 0 65535  0 0 65535  0 0 65535  0 0 65535
0 0 65535  0 0 65535  0 0 65535  0 0 65535  0 0 65535  0 0 65535
0 0 65535  0 0 65535  0 0 65535  0 0 65535  0 0 65535  0 0 65535
0 0 65535  0 0 65535  0 0 65535  0 0 65535  0 0 65535  0 0 0
0 0 0  0 0 0  0 0 0  0 0 0  65535 65535 0  65535 65535 0
65535 65535 0  65535 65535 0  0 0 0  0 0 0  0 0 0  0 0 0
65535 65535 65535  0 0 0  0 0 0  0 0 0  0 0 0  0 0 65535
0 0 65535  0 0 65535  0 0 65535  0 0 65535  0 0 65535  0 0 65535
0 0 65535  0 0 65535  0 0 65535  0 0 65535  0 0 65535  0 0 65535
0 0 65535  0 0 65535  0 0 65535  0 0 65535
0 0 65535  0 0 65535  0 0 65535  0 0 65535  0 0 65535  0 0 65535
0 0 65535  0 0 65535  0 0 65535  0 0 65535  0 0 65535  0 0 65535
0 0 65535  0 0 65535  0 0 65535  0 0 65535  0 0 65535  0 0 0
0 0 0  65535 65535 65535  0 0 0  65535 65535 0  65535 65535 0  65535 65535 0
65535 65535 0  65535 65535 0  65535 65535 0  65535 0 0  0 0 0  65535 65535 65535
0 0 0  0 0 0  0 0 0  0 0 0  0 0 0  0 0 0
0 0 65535  0 0 65535  0 0 65535  0 0 65535  0 0 65535  0 0 65535
0 0 65535  0 0 65535  0 0 65535  0 0 65535  0 0 65535  0 0 65535
0 0 65535  0 0 65535  0 0 65535  0 0 65535
0 0 65535  0 0 65535  0 0 65535  0 0 65535  0 0 65535  0 0 65535
0 0 65535  0 0 65535  0 0 65535  0 0 65535  0 0 65535  0 0 65535
0 0 65535  0 0 65535  0 0 65535  0 0 65535  0 0 65535  0 0 0
0 0 0  65535 0 0  65535 65535 0  65535 65535 0  65535 65535 0  65535 65535 0
65535 65535 0  65535 65535 0  65535 65535 0  65535 65535 0  65535 65535 0  65535 65535 0
0 0 0  0 0 0  0 0 0  0 0 0  0 0 0  0 0 0
0 0 65535  0 0 65535  0 0 65535  0 0 65535  0 0 65535  0 0 65535
0 0 65535  0 0 65535  0 0 65535  0 0 65535  0 0 65535  0 0 65535
0 0 65535  0 0 65535  0 0 65535  0 0 65535
0 0 65535  0 0 65535  0 0 65535  0 0 65535  0 0 65535  0 0 65535
0 0 65535  0 0 65535  0 0 65535  0 0 65535  0 0 65535  0 0 65535
0 0 65535  0 0 65535  0 0 65535  0 0 65535  0 0 65535  0 0 0
0 0 0  65535 65535 0  65535 65535 0  65535 65535 0  65535 65535 0  65535 65535 0
65535 65535 0  65535 65535 0  65535 65535 0  65535 65535 0  65535 65535 0  65535 65535 0
65535 65535 0  0 0 0  0 0 0  0 0 0  0 0 0  0 0 0
0 0 65535  0 0 65535  0 0 65535  0 0 65535  0 0 65535  0 0 65535
0 0 65535  0 0 65535  0 0 65535  0 0 65535  0 0 65535  0 0 65535
0 0 65535  0 0 65535  0 0 65535  0 0 65535
0 0 65535  0 0 65535  0 0 65535  0 0 65535  0 0 65535  0 0 65535
0 0 65535  0 0 65535  0 0 65535  0 0 65535  0 0 65535  0 0 65535
0 0 65535  0 0 65535  0 0 65535  0 0 65535  0 0 65535  0 0 0
0 0 0  65535 65535 0  65535 65535 0  65535 65535 0  65535 65535 0  65535 65535 0
65535 65535 0  65535 65535 0  65535 65535 0  65535 65535 0  65535 65535 0  65535 65535 0
65535 0 0  0 0 0  0 0 0  0 0 0  0 0 0  0 0 0
0 0 65535  0 0 65535  0 0 65535  0 0 65535  0 0 65535  0 0 65535
0 0 65535  0 0 65535  0 0 65535  0 0 65535  0 0 65535  0 0 65535
0 0 65535  0 0 65535  0 0 65535  0 0 65535
0 0 65535  0 0 65535  0 0 65535  0 0 65535  0 0 65535  0 0 65535
0 0 65535  0 0 65535  0 0 65535  0 0 65535  0 0 65535  0 0 65535
0 0 65535  0 0 65535  0 0 65535  0 0 65535  0 0 65535  0 0 0
0 0 0  0 0 0  65535 65535 0  65535 65535 0  65535 65535 0  65535 65535 0
65535 65535 0  65535 65535 0  65535 0 0  65535 65535 0  65535 65535 0  65535 65535 0
0 0 0  0 0 0  0 0 0  0 0 0  0 0 0  0 0 0
0 0 65535  0 0 65535  0 0 65535  0 0 65535  0 0 65535  0 0 65535
0 0 65535  0 0 65535  0 0 65535  0 0 65535  0 0 65535  0 0 65535
0 0 65535  0 0 65535  0 0 65535  0 0 65535
0 0 65535  0 0 65535  0 0 65535  0 0 65535  0 0 65535  0 0 65535
0 0 65535  0 0 65535  0 0 65535  0 0 65535  0 0 65535  0 0 65535
0 0 65535  0 0 65535  0 0 65535  0 0 65535  0 0 65535  0 0 0
0 0 0  65535 65535 65535  65535 0 0  65535 65535 0  65535 65535 0  65535 65535 0
65535 0 0  65535 65535 0  65535 65535 0  65535 65535 0  65535 65535 0  65535 65535 65535
65535 65535 65535  0 0 0  0 0 0  0 0 0  0 0 0  0 0 0
0 0 0  0 0 65535  0 0 65535  0 0 65535  0 0 65535  0 0 65535
0 0 65535  0 0 65535  0 0 65535  0 0 65535  0 0 65535  0 0 65535
0 0 65535  0 0 65535  0 0 65535  0 0 65535
0 0 65535  0 0 65535  0 0 65535  0 0 65535  0 0 65535  0 0 65535
0 0 65535  0 0 65535  0 0 65535  0 0 65535  0 0 65535  0 0 65535
0 0 65535  0 0 65535  0 0 65535  0 0 65535  0 0 65535  0 0 0
0 0 0  65535 65535 65535  65535 65535 65535  65535 0 0  65535 65535 0  65535 65535 0
65535 65535 0  65535 0 0  65535 65535 0  65535 65535 65535  65535 65535 65535  65535 65535 65535
65535 65535 65535  0 0 0  0 0 0  0 0 0  0 0 0  0 0 0
0 0 0  0 0 0  0 0 65535  0 0 65535  0 0 65535  0 0 65535
0 0 65535  0 0 65535  0 0 65535  0 0 65535  0 0 65535  0 0 65535
0 0 65535  0 0 65535  0 0 65535  0 0 65535
0 0 65535  0 0 65535  0 0 65535  0 0 65535  0 0 65535  0 0 65535
0 0 65535  0 0 65535  0 0 65535  0 0 65535  0 0 65535  0 0 65535
0 0 65535  0 0 65535  0 0 65535  0 0 65535  0 0 65535  0 0 0
0 0 0  65535 65535 65535  65535 65535 65535  65535 65535 65535  65535 0 0  65535 0 0
65535 65535 0  65535 65535 0  65535 65535 65535  65535 65535 65535  65535 65535 65535  65535 65535 65535
65535 65535 65535  65535 65535 65535  0 0 0  0 0 0  0 0 0  0 0 0
0 0 0  0 0 0  0 0 65535  0 0 65535  0 0 65535  0 0 65535
0 0 65535  0 0 65535  0 0 65535  0 0 65535  0 0 65535  0 0 65535
0 0 65535  0 0 65535  0 0 65535  0 0 65535
0 0 65535  0 0 65535  0 0 65535  0 0 65535  0 0 65535  0 0 65535
0 0 65535  0 0 65535  0 0 65535  0 0 65535  0 0 65535  0 0 65535
0 0 65535  0 0 65535  0 0 65535  0 0 65535  0 0 0  0 0 0
0 0 0  65535 65535 65535  65535 65535 65535  65535 65535 65535  65535 65535 65535  65535 65535 65535
65535 65535 65535  65535 65535 65535  65535 65535 65535  65535 65535 65535  65535 65535 65535  65535 65535 65535
65535 65535 65535  65535 65535 65535  0 0 0  0 0 0  0 0 0  0 0 0
0 0 0  0 0 0  0 0 0  0 0 65535  0 0 65535  0 0 65535
0 0 65535  0 0 65535  0 0 65535  0 0 65535  0 0 65535  0 0 65535
0 0 65535  0 0 65535  0 0 65535  0 0 65535
0 0 65535  0 0 65535  0 0 65535  0 0 65535  0 0 65535  0 0 65535
0 0 65535  0 0 65535  0 0 65535  0 0 65535  0 0 65535  0 0 65535
0 0 65535  0 0 65535  0 0 65535  0 0 0  0 0 0  0 0 0
65535 65535 65535  65535 65535 65535  65535 65535 65535  65535 65535 65535  65535 65535 65535  65535 65535 65535
65535 65535 65535  65535 65535 65535  65535 65535 65535  65535 65535 65535  65535 65535 65535  65535 65535 65535
65535 65535 65535  65535 65535 65535  65535 65535 65535  0 0 0  0 0 0  0 0 0
0 0 0  0 0 0  0 0 0  0 0 65535  0 0 65535  0 0 65535
0 0 65535  0 0 65535  0 0 65535  0 0 65535  0 0 65535  0 0 65535
0 0 65535  0 0 65535  0 0 65535  0 0 65535
0 0 65535  0 0 65535  0 0 65535  0 0 65535  0 0 65535  0 0 65535
0 0 65535  0 0 65535  0 0 65535  0 0 65535  0 0 65535  0 0 65535
0 0 65535  0 0 65535  0 0 0  0 0 0  0 0 0  65535 65535 65535
65535 65535 65535  65535 65535 65535  65535 65535 65535  65535 65535 65535  65535 65535 65535  65535 65535 65535
65535 65535 65535  65535 65535 65535  65535 65535 65535  65535 65535 65535  65535 65535 65535  65535 65535 65535
65535 65535 65535  65535 65535 65535  65535 65535 65535  0 0 0  0 0 0  0 0 0
0 0 0  0 0 0  0 0 0  0 0 0  0 0 65535  0 0 65535
0 0 65535  0 0 65535  0 0 65535  0 0 65535  0 0 65535  0 0 65535
0 0 65535  0 0 65535  0 0 65535  0 0 65535
0 0 65535  0 0 65535  0 0 65535  0 0 65535  0 0 65535  0 0 65535
0 0 65535  0 0 65535  0 0 65535  0 0 65535  0 0 65535  0 0 65535
0 0 65535  0 0 65535  0 0 0  0 0 0  0 0 0  65535 65535 65535
65535 65535 65535  65535 65535 65535  65535 65535 65535  65535 65535 65535  65535 65535 65535  65535 65535 65535
65535 65535 65535  65535 65535 65535  65535 65535 65535  65535 65535 65535  65535 65535 65535  65535 65535 65535
65535 65535 65535  65535 65535 65535  65535 65535 65535  65535 65535 65535  0 0 0  0 0 0
0 0 0  0 0 0  0 0 0  0 0 0  0 0 0  0 0 65535
0 0 65535  0 0 65535  0 0 65535  0 0 65535  0 0 65535  0 0 65535
0 0 65535  0 0 65535  0 0 65535  0 0 65535
0 0 65535  0 0 65535  0 0 65535  0 0 65535  0 0 65535  0 0 65535
0 0 65535  0 0 65535  0 0 65535  0 0 65535  0 0 65535  0 0 65535
0 0 65535  0 0 0  0 0 0  0 0 0  65535 65535 65535  65535 65535 65535
65535 65535 65535  65535 65535 65535  65535 65535 65535  65535 65535 65535  65535 65535 65535  65535 65535 65535
65535 65535 65535  65535 65535 65535  65535 65535 65535  65535 65535 65535  65535 65535 65535  65535 65535 65535
65535 65535 65535  65535 65535 65535  65535 65535 65535  65535 65535 65535  0 0 0  0 0 0
0 0 0  0 0 0  0 0 0  0 0 0  0 0 0  0 0 0
0 0 65535  0 0 65535  0 0 65535  0 0 65535  0 0 65535  0 0 65535
0 0 65535  0 0 65535  0 0 65535  0 0 65535
0 0 65535  0 0 65535  0 0 65535  0 0 65535  0 0 65535  0 0 65535
0 0 65535  0 0 65535  0 0 65535  0 0 65535  0 0 65535  0 0 65535
0 0 0  0 0 0  0 0 0  0 0 0  65535 65535 65535  65535 65535 65535
65535 65535 65535  65535 65535 65535  65535 65535 65535  65535 65535 65535  65535 65535 65535  65535 65535 65535
65535 65535 65535  65535 65535 65535  65535 65535 65535  65535 65535 65535  65535 65535 65535  65535 65535 65535
65535 65535 65535  65535 65535 65535  65535 65535 65535  65535 65535 65535  0 0 0  0 0 0
0 0 0  0 0 0  0 0 0  0 0 0  0 0 0  0 0 0
0 0 65535  0 0 65535  0 0 65535  0 0 65535  0 0 65535  0 0 65535
0 0 65535  0 0 65535  0 0 65535  0 0 65535
0 0 65535  0 0 65535  0 0 65535  0 0 65535  0 0 65535  0 0 65535
0 0 65535  0 0 65535  0 0 65535  0 0 65535  0 0 65535  0 0 65535
0 0 0  0 0 0  0 0 0  0 0 0  65535 65535 65535  65535 65535 65535
65535 65535 65535  65535 65535 65535  65535 65535 65535  65535 65535 65535  65535 65535 65535  65535 65535 65535
65535 65535 65535  65535 65535 65535  65535 65535 65535  65535 65535 65535  65535 65535 65535  65535 65535 65535
65535 65535 65535  65535 65535 65535  65535 65535 65535  65535 65535 65535  65535 65535 65535  0 0 0
0 0 0  0 0 0  0 0 0  0 0 0  0 0 0  0 0 0
0 0 0  0 0 65535  0 0 65535  0 0 65535  0 0 65535  0 0 65535
0 0 65535  0 0 65535  0 0 65535  0 0 65535
0 0 65535  0 0 65535  0 0 65535  0 0 65535  0 0 65535  0 0 65535
0 0 65535  0 0 65535  0 0 65535  0 0 65535  0 0 65535  0 0 0
0 0 0  0 0 0  0 0 0  65535 65535 65535  65535 65535 65535  65535 65535 65535
65535 65535 65535  65535 65535 65535  65535 65535 65535  65535 65535 65535  65535 65535 65535  65535 65535 65535
65535 65535 65535  65535 65535 65535  65535 65535 65535  65535 65535 65535  65535 65535 65535  65535 65535 65535
65535 65535 65535  65535 65535 65535  65535 65535 65535  65535 65535 65535  65535 65535 65535  0 0 0
0 0 0  0 0 0  0 0 0  0 0 0  0 0 0  0 0 0
0 0 0  0 0 0  0 0 65535  0 0 65535  0 0 65535  0 0 65535
0 0 65535  0 0 65535  0 0 65535  0 0 65535
0 0 65535  0 0 65535  0 0 65535  0 0 65535  0 0 65535  0 0 65535
0 0 65535  0 0 65535  0 0 65535  0 0 65535  0 0 65535  0 0 0
0 0 0  0 0 0  0 0 0  65535 65535 65535  65535 65535 65535  65535 65535 65535
65535 65535 65535  65535 65535 65535  65535 65535 65535  65535 65535 65535  65535 65535 65535  65535 65535 65535
65535 65535 65535  65535 65535 65535  65535 65535 65535  65535 65535 65535  65535 65535 65535  65535 65535 65535
65535 65535 65535  65535 65535 65535  65535 65535 65535  65535 65535 65535  65535 65535 65535  65535 65535 65535
0 0 0  0 0 0  0 0 0  0 0 0  0 0 0  0 0 0
0 0 0  0 0 0  0 0 65535  0 0 65535  0 0 65535  0 0 65535
0 0 65535  0 0 65535  0 0 65535  0 0 65535
0 0 65535  0 0 65535  0 0 65535  0 0 65535  0 0 65535  0 0 65535
0 0 65535  0 0 65535  0 0 65535  0 0 65535  0 0 65535  0 0 0
0 0 0  0 0 0  65535 65535 65535  65535 65535 65535  65535 65535 65535  65535 65535 65535
65535 65535 65535  65535 65535 65535  65535 65535 65535  65535 65535 65535  65535 65535 65535  65535 65535 65535
65535 65535 65535  65535 65535 65535  65535 65535 65535  65535 65535 65535  65535 65535 65535  65535 65535 65535
65535 65535 65535  65535 65535 65535  65535 65535 65535  65535 65535 65535  65535 65535 65535  65535 65535 65535
0 0 0  0 0 0  0 0 0  0 0 0  0 0 0  0 0 0
0 0 0  0 0 0  0 0 65535  0 0 65535  0 0 65535  0 0 65535
0 0 65535  0 0 65535  0 0 65535  0 0 65535
0 0 65535  0 0 65535  0 0 65535  0 0 65535  0 0 65535  0 0 65535
0 0 65535  0 0 65535  0 0 65535  0 0 65535  0 0 0  0 0 0
0 0 0  0 0 0  65535 65535 65535  65535 65535 65535  65535 65535 65535  65535 65535 65535
65535 65535 65535  65535 65535 65535  65535 65535 65535  65535 65535 65535  65535 65535 65535  65535 65535 65535
65535 65535 65535  65535 65535 65535  65535 65535 65535  65535 65535 65535  65535 65535 65535  65535 65535 65535
65535 65535 65535  65535 65535 65535  65535 65535 65535  65535 65535 65535  65535 65535 65535  65535 65535 65535
65535 65535 65535  0 0 0  0 0 0  0 0 0  0 0 0  0 0 0
0 0 0  0 0 0  0 0 0  0 0 65535  0 0 65535  0 0 65535
0 0 65535  0 0 65535  0 0 65535  0 0 65535
0 0 65535  0 0 65535  0 0 65535  0 0 65535  0 0 65535  0 0 65535
0 0 65535  0 0 65535  0 0 65535  0 0 65535  0 0 0  0 0 0
0 0 0  65535 65535 65535  65535 65535 65535  65535 65535 65535  65535 65535 65535  65535 65535 65535
65535 65535 65535  65535 65535 65535  65535 65535 65535  65535 65535 65535  65535 65535 65535  65535 65535 65535
65535 65535 65535  65535 65535 65535  65535 65535 65535  65535 65535 65535  65535 65535 65535  65535 65535 65535
65535 65535 65535  65535 65535 65535  65535 65535 65535  65535 65535 65535  65535 65535 65535  65535 65535 65535
65535 65535 65535  0 0 0  0 0 0  0 0 0  0 0 0  0 0 0
0 0 0  0 0 0  0 0 0  0 0 65535  0 0 65535  0 0 65535
0 0 65535  0 0 65535  0 0 65535  0 0 65535
0 0 65535  0 0 65535  0 0 65535  0 0 65535  0 0 65535  0 0 65535
0 0 65535  0 0 65535  0 0 65535  0 0 0  0 0 0  0 0 0
0 0 0  65535 65535 65535  65535 65535 65535  65535 65535 65535  65535 65535 65535  65535 65535 65535
65535 65535 65535  65535 65535 65535  65535 65535 65535  65535 65535 65535  65535 65535 65535  65535 65535 65535
65535 65535 65535  65535 65535 65535  65535 65535 65535  65535 65535 65535  65535 65535 65535  65535 65535 65535
65535 65535 65535  65535 65535 65535  65535 65535 65535  65535 65535 65535  65535 65535 65535  65535 65535 65535
65535 65535 65535  0 0 0  0 0 0  0 0 0  0 0 0  0 0 0
0 0 0  0 0 0  0 0 0  0 0 65535  0 0 65535  0 0 65535
0 0 65535  0 0 65535  0 0 65535  0 0 65535
0 0 65535  0 0 65535  0 0 65535  0 0 65535  0 0 65535  0 0 65535
0 0 65535  0 0 65535  0 0 65535  0 0 0  0 0 0  0 0 0
0 0 0  65535 65535 65535  65535 65535 65535  65535 65535 65535  65535 65535 65535  65535 65535 65535
65535 65535 65535  65535 65535 65535  65535 65535 65535  65535 65535 65535  65535 65535 65535  65535 65535 65535
65535 65535 65535  65535 65535 65535  65535 65535 65535  65535 65535 65535  65535 65535 65535  65535 65535 65535
65535 65535 65535  65535 65535 65535  65535 65535 65535  65535 65535 65535  65535 65535 65535  65535 65535 65535
65535 65535 65535  0 0 0  0 0 0  0 0 0  0 0 0  0 0 0
0 0 0  0 0 0  0 0 0  0 0 0  0 0 65535  0 0 65535
0 0 65535  0 0 65535  0 0 65535  0 0 65535
0 0 65535  0 0 65535  0 0 65535  0 0 65535  0 0 65535  0 0 65535
0 0 65535  0 0 65535  0 0 65535  0 0 0  0 0 0  0 0 0
65535 65535 65535  65535 65535 65535  65535 65535 65535  65535 65535 65535  65535 65535 65535  65535 65535 65535
65535 65535 65535  65535 65535 65535  65535 65535 65535  65535 65535 65535  65535 65535 65535  65535 65535 65535
65535 65535 65535  65535 65535 65535  65535 65535 65535  65535 65535 65535  65535 65535 65535  65535 65535 65535
65535 65535 65535  65535 65535 65535  65535 65535 65535  65535 65535 65535  65535 65535 65535  65535 65535 65535
65535 65535 65535  0 0 0  0 0 0  0 0 0  0 0 0  0 0 0
0 0 0  0 0 0  0 0 0  0 0 0  0 0 65535  0 0 65535
0 0 65535  0 0 65535  0 0 65535  0 0 65535
0 0 65535  0 0 65535  0 0 65535  0 0 65535  0 0 65535  0 0 65535
0 0 65535  0 0 65535  0 0 0  0 0 0  0 0 0  0 0 0
65535 65535 65535  65535 65535 65535  65535 65535 65535  65535 65535 65535  65535 65535 65535  65535 65535 65535
65535 65535 65535  65535 65535 65535  65535 65535 65535  65535 65535 65535  65535 65535 65535  65535 65535 65535
65535 65535 65535  65535 65535 65535  65535 65535 65535  65535 65535 65535  65535 65535 65535  65535 65535 65535
65535 65535 65535  65535 65535 65535  65535 65535 65535  65535 65535 65535  65535 65535 65535  65535 65535 65535
65535 65535 65535  0 0 0  0 0 0  0 0 0  0 0 0  0 0 0
0 0 0  0 0 0  0 0 0  0 0 0  0 0 65535  0 0 65535
0 0 65535  0 0 65535  0 0 65535  0 0 65535
0 0 65535  0 0 65535  0 0 65535  0 0 65535  0 0 65535  0 0 65535
0 0 65535  0 0 0  0 0 0  0 0 0  0 0 0  0 0 0
65535 65535 65535  65535 65535 65535  65535 65535 65535  65535 65535 65535  65535 65535 65535  65535 65535 65535
65535 65535 65535  65535 65535 65535  65535 65535 65535  65535 65535 65535  65535 65535 65535  65535 65535 65535
65535 65535 65535  65535 65535 65535  65535 65535 65535  65535 65535 65535  65535 65535 65535  65535 65535 65535
65535 65535 65535  65535 65535 65535  65535 65535 65535  65535 65535 65535  65535 65535 65535  65535 65535 65535
65535 65535 65535  0 0 0  0 0 0  0 0 0  0 0 0  0 0 0
0 0 0  0 0 0  0 0 0  0 0 0  0 0 65535  0 0 65535
0 0 65535  0 0 65535  0 0 65535  0 0 65535
0 0 65535  0 0 65535  0 0 65535  0 0 65535  0 0 65535  0 0 65535
0 0 65535  0 0 0  0 0 0  0 0 0  0 0 0  0 0 0
65535 65535 65535  65535 65535 65535  65535 65535 65535  65535 65535 65535  65535 65535 65535  65535 65535 65535
65535 65535 65535  65535 65535 65535  65535 65535 65535  65535 65535 65535  65535 65535 65535  65535 65535 65535
65535 65535 65535  65535 65535 65535  65535 65535 65535  65535 65535 65535  65535 65535 65535  65535 65535 65535
65535 65535 65535  65535 65535 65535  65535 65535 65535  65535 65535 65535  65535 65535 65535  65535 65535 65535
65535 65535 65535  0 0 0  0 0 0  0 0 0  0 0 0  0 0 0
0 0 0  0 0 0  0 0 0  0 0 0  0 0 65535  0 0 65535
0 0 65535  0 0 65535  0 0 65535  0 0 65535
0 0 65535  0 0 65535  0 0 65535  0 0 65535  0 0 65535  0 0 65535
0 0 65535  0 0 0  0 0 0  0 0 0  0 0 0  0 0 0
65535 65535 65535  65535 65535 65535  65535 65535 65535  65535 65535 65535  65535 65535 65535  65535 65535 65535
65535 65535 65535  65535 65535 65535  65535 65535 65535  65535 65535 65535  65535 65535 65535  65535 65535 65535
65535 65535 65535  65535 65535 65535  65535 65535 65535  65535 65535 65535  65535 65535 65535  65535 65535 65535
65535 65535 65535  65535 65535 65535  65535 65535 65535  65535 65535 65535  65535 65535 65535  65535 65535 65535
65535 65535 65535  0 0 0  0 0 0  0 0 0  0 0 0  0 0 0
0 0 0  0 0 0  0 0 0  0 0 0  0 0 65535  0 0 65535
0 0 65535  0 0 65535  0 0 65535  0 0 65535
0 0 65535  0 0 65535  0 0 65535  0 0 65535  0 0 65535  0 0 65535
0 0 65535  0 0 0  0 0 0  65535 65535 0  0 0 0  0 0 0
65535 65535 65535  65535 65535 65535  65535 65535 65535  65535 65535 65535  65535 65535 65535  65535 65535 65535
65535 65535 65535  65535 65535 65535  65535 65535 65535  65535 65535 65535  65535 65535 65535  65535 65535 65535
65535 65535 65535  65535 65535 65535  65535 65535 65535  65535 65535 65535  65535 65535 65535  65535 65535 65535
65535 65535 65535  65535 65535 65535  65535 65535 65535  65535 65535 65535  65535 65535 65535  65535 65535 65535
65535 65535 65535  0 0 0  0 0 0  0 0 0  0 0 0  0 0 0
0 0 0  0 0 0  0 0 0  0 0 0  0 0 65535  0 0 65535
0 0 65535  0 0 65535  0 0 65535  0 0 65535
0 0 65535  0 0 65535  0 0 65535  0 0 65535  0 0 65535  0 0 65535
0 0 65535  65535 65535 0  65535 65535 0  65535 65535 0  65535 65535 0  0 0 0
0 0 0  65535 65535 65535  65535 65535 65535  65535 65535 65535  65535 65535 65535  65535 65535 65535
65535 65535 65535  65535 65535 65535  65535 65535 65535  65535 65535 65535  65535 65535 65535  65535 65535 65535
65535 65535 65535  65535 65535 65535  65535 65535 65535  65535 65535 65535  65535 65535 65535  65535 65535 65535
65535 65535 65535  65535 65535 65535  65535 65535 65535  65535 65535 65535  65535 65535 65535  65535 65535 0
65535 65535 0  0 0 0  0 0 0  0 0 0  0 0 0  0 0 0
0 0 0  0 0 0  0 0 0  0 0 0  0 0 65535  0 0 65535
0 0 65535  0 0 65535  0 0 65535  0 0 65535
0 0 65535  0 0 65535  0 0 65535  0 0 65535  0 0 65535  0 0 65535
0 0 65535  65535 65535 0  65535 65535 0  65535 65535 0  65535 65535 0  65535 65535 0
0 0 0  0 0 0  65535 65535 65535  65535 65535 65535  65535 65535 65535  65535 65535 65535
65535 65535 65535  65535 65535 65535  65535 65535 65535  65535 65535 65535  65535 65535 65535  65535 65535 65535
65535 65535 65535  65535 65535 65535  65535 65535 65535  65535 65535 65535  65535 65535 65535  65535 65535 65535
65535 65535 65535  65535 65535 65535  65535 65535 65535  65535 65535 65535  65535 65535 0  65535 65535 0
65535 65535 0  65535 65535 0  0 0 0  0 0 0  0 0 0  0 0 0
0 0 0  0 0 0  0 0 0  65535 65535 0  0 0 65535  0 0 65535
0 0 65535  0 0 65535  0 0 65535  0 0 65535
0 0 65535  0 0 65535  0 0 65535  0 0 65535  0 0 65535  0 0 65535
65535 65535 0  65535 65535 0  65535 65535 0  65535 65535 0  65535 65535 0  65535 65535 0
65535 65535 0  0 0 0  0 0 0  65535 65535 65535  65535 65535 65535  65535 65535 65535
65535 65535 65535  65535 65535 65535  65535 65535 65535  65535 65535 65535  65535 65535 65535  65535 65535 65535
65535 65535 65535  65535 65535 65535  65535 65535 65535  65535 65535 65535  65535 65535 65535  65535 65535 65535
65535 65535 65535  65535 65535 65535  65535 65535 65535  65535 65535 65535  65535 65535 0  65535 65535 0
65535 65535 0  65535 0 0  0 0 0  0 0 0  0 0 0  0 0 0
0 0 0  0 0 0  65535 65535 0  65535 65535 0  65535 0 0  0 0 65535
0 0 65535  0 0 65535  0 0 65535  0 0 65535
0 0 65535  0 0 65535  0 0 65535  0 0 65535  0 0 65535  65535 65535 0
65535 65535 0  65535 65535 0  65535 65535 0  65535 65535 0  65535 65535 0  65535 65535 0
65535 65535 0  65535 0 0  0 0 0  0 0 0  65535 65535 65535  65535 65535 65535
65535 65535 65535  65535 65535 65535  65535 65535 65535  65535 65535 65535  65535 65535 65535  65535 65535 65535
65535 65535 65535  65535 65535 65535  65535 65535 65535  65535 65535 65535  65535 65535 65535  65535 65535 65535
65535 65535 65535  65535 65535 65535  65535 65535 65535  65535 65535 65535  65535 65535 0  65535 65535 0
65535 65535 0  65535 0 0  0 0 0  0 0 0  0 0 0  0 0 0
0 0 0  65535 65535 0  65535 65535 0  65535 65535 0  65535 0 0  0 0 65535
0 0 65535  0 0 65535  0 0 65535  0 0 65535
0 0 65535  65535 0 0  65535 65535 0  65535 65535 0  65535 65535 0  65535 65535 0
65535 65535 0  65535 65535 0  65535 65535 0  65535 65535 0  65535 65535 0  65535 65535 0
65535 65535 0  65535 65535 0  0 0 0  0 0 0  0 0 0  65535 65535 65535
65535 65535 65535  65535 65535 65535  65535 65535 65535  65535 65535 65535  65535 65535 65535  65535 65535 65535
65535 65535 65535  65535 65535 65535  65535 65535 65535  65535 65535 65535  65535 65535 65535  65535 65535 65535
65535 65535 65535  65535 65535 65535  65535 65535 65535  65535 65535 65535  65535 65535 0  65535 65535 0
65535 65535 0  65535 65535 0  65535 0 0  65535 0 0  0 0 0  65535 0 0
65535 0 0  65535 65535 0  65535 65535 0  65535 65535 0  65535 65535 0  0 0 65535
0 0 65535  0 0 65535  0 0 65535  0 0 65535
65535 0 0  65535 65535 0  65535 65535 0  65535 65535 0  65535 65535 0  65535 65535 0
65535 65535 0  65535 65535 0  65535 65535 0  65535 65535 0  65535 65535 0  65535 65535 0
65535 65535 0  65535 65535 0  65535 65535 0  0 0 0  0 0 0  0 0 0
0 0 0  65535 65535 65535  65535 65535 65535  65535 65535 65535  65535 65535 65535  65535 65535 65535
65535 65535 65535  65535 65535 65535  65535 65535 65535  65535 65535 65535  65535 65535 65535  65535 65535 65535
65535 65535 65535  65535 65535 65535  65535 65535 65535  65535 65535 65535  65535 65535 0  65535 65535 0
65535 65535 0  65535 65535 0  65535 65535 0  65535 65535 0  65535 65535 0  65535 65535 0
65535 65535 0  65535 65535 0  65535 65535 0  65535 65535 0  65535 65535 0  65535 0 0
0 0 65535  0 0 65535  0 0 65535  0 0 65535
65535 0 0  65535 65535 0  65535 65535 0  65535 65535 0  65535 65535 0  65535 65535 0
65535 65535 0  65535 65535 0  65535 65535 0  65535 65535 0  65535 65535 0  65535 65535 0
65535 65535 0  65535 65535 0  65535 65535 0  0 0 0  0 0 0  0 0 0
0 0 0  65535 65535 65535  65535 65535 65535  65535 65535 65535  65535 65535 65535  65535 65535 65535
65535 65535 65535  65535 65535 65535  65535 65535 65535  65535 65535 65535  65535 65535 65535  65535 65535 65535
65535 65535 65535  65535 65535 65535  65535 65535 65535  65535 65535 65535  65535 65535 0  65535 65535 0
65535 65535 0  65535 65535 0  65535 65535 0  65535 65535 0  65535 65535 0  65535 65535 0
65535 65535 0  65535 65535 0  65535 65535 0  65535 65535 0  65535 65535 0  65535 65535 0
0 0 65535  0 0 65535  0 0 65535  0 0 65535
65535 0 0  65535 65535 0  65535 65535 0  65535 65535 0  65535 65535 0  65535 65535 0
65535 65535 0  65535 65535 0  65535 65535 0  65535 65535 0  65535 65535 0  65535 65535 0
65535 65535 0  65535 65535 0  65535 65535 0  65535 65535 0  0 0 0  0 0 0
0 0 0  0 0 0  65535 65535 65535  65535 65535 65535  65535 65535 65535  65535 65535 65535
65535 65535 65535  65535 65535 65535  65535 65535 65535  65535 65535 65535  65535 65535 65535  65535 65535 65535
65535 65535 65535  65535 65535 65535  65535 65535 65535  65535 65535 65535  65535 0 0  65535 65535 0
65535 65535 0  65535 65535 0  65535 65535 0  65535 65535 0  65535 65535 0  65535 65535 0
65535 65535 0  65535 65535 0  65535 65535 0  65535 65535 0  65535 65535 0  65535 65535 0
65535 65535 0  65535 0 0  0 0 65535  0 0 65535
0 0 65535  65535 0 0  65535 65535 0  65535 65535 0  65535 65535 0  65535 65535 0
65535 65535 0  65535 65535 0  65535 65535 0  65535 65535 0  65535 65535 0  65535 65535 0
65535 65535 0  65535 65535 0  65535 65535 0  65535 65535 0  65535 65535 0  0 0 0
0 0 0  65535 65535 65535  65535 65535 65535  65535 65535 65535  65535 65535 65535  65535 65535 65535
65535 65535 65535  65535 65535 65535  65535 65535 65535  65535 65535 65535  65535 65535 65535  65535 65535 65535
65535 65535 65535  65535 65535 65535  65535 65535 65535  0 0 0  0 0 0  65535 65535 0
65535 65535 0  65535 65535 0  65535 65535 0  65535 65535 0  65535 65535 0  65535 65535 0
65535 65535 0  65535 65535 0  65535 65535 0  65535 65535 0  65535 65535 0  65535 65535 0
65535 65535 0  65535 65535 0  65535 65535 0  0 0 65535
0 0 65535  65535 0 0  65535 65535 0  65535 65535 0  65535 65535 0  65535 65535 0
65535 65535 0  65535 65535 0  65535 65535 0  65535 65535 0  65535 65535 0  65535 65535 0
65535 65535 0  65535 65535 0  65535 65535 0  65535 65535 0  65535 65535 0  65535 65535 0
65535 65535 65535  65535 65535 65535  65535 65535 65535  65535 65535 65535  65535 65535 65535  65535 65535 65535
65535 65535 65535  65535 65535 65535  65535 65535 65535  65535 65535 65535  65535 65535 65535  65535 65535 65535
65535 65535 65535  65535 65535 65535  0 0 0  0 0 0  65535 0 0  65535 65535 0
65535 65535 0  65535 65535 0  65535 65535 0  65535 65535 0  65535 65535 0  65535 65535 0
65535 65535 0  65535 65535 0  65535 65535 0  65535 65535 0  65535 65535 0  65535 65535 0
65535 65535 0  65535 65535 0  65535 65535 0  65535 65535 0
65535 0 0  65535 65535 0  65535 65535 0  65535 65535 0  65535 65535 0  65535 65535 0
65535 65535 0  65535 65535 0  65535 65535 0  65535 65535 0  65535 65535 0  65535 65535 0
65535 65535 0  65535 65535 0  65535 65535 0  65535 65535 0  65535 65535 0  65535 65535 0
65535 65535 65535  65535 65535 65535  65535 65535 65535  65535 65535 65535  65535 65535 65535  65535 65535 65535
65535 65535 65535  65535 65535 65535  65535 65535 65535  65535 65535 65535  65535 65535 65535  65535 65535 65535
65535 65535 65535  0 0 0  0 0 0  0 0 0  65535 0 0  65535 65535 0
65535 65535 0  65535 65535 0  65535 65535 0  65535 65535 0  65535 65535 0  65535 65535 0
65535 65535 0  65535 65535 0  65535 65535 0  65535 65535 0  65535 65535 0  65535 65535 0
65535 65535 0  65535 65535 0  65535 65535 0  0 0 65535
65535 0 0  65535 65535 0  65535 65535 0  65535 65535 0  65535 65535 0  65535 65535 0
65535 65535 0  65535 65535 0  65535 65535 0  65535 65535 0  65535 65535 0  65535 65535 0
65535 65535 0  65535 65535 0  65535 65535 0  65535 65535 0  65535 65535 0  65535 65535 0
65535 0 0  65535 65535 65535  65535 65535 65535  65535 65535 65535  65535 65535 65535  65535 65535 65535
65535 65535 65535  65535 65535 65535  65535 65535 65535  65535 65535 65535  65535 65535 65535  0 0 0
0 0 0  0 0 0  0 0 0  0 0 0  65535 0 0  65535 65535 0
65535 65535 0  65535 65535 0  65535 65535 0  65535 65535 0  65535 65535 0  65535 65535 0
65535 65535 0  65535 65535 0  65535 65535 0  65535 65535 0  65535 65535 0  65535 65535 0
65535 65535 0  65535 0 0  0 0 65535  0 0 65535
0 0 65535  65535 0 0  65535 65535 0  65535 65535 0  65535 65535 0  65535 65535 0
65535 65535 0  65535 65535 0  65535 65535 0  65535 65535 0  65535 65535 0  65535 65535 0
65535 65535 0  65535 65535 0  65535 65535 0  65535 65535 0  65535 65535 0  65535 65535 0
65535 0 0  0 0 0  0 0 0  65535 65535 65535  65535 65535 65535  65535 65535 65535
65535 65535 65535  0 0 0  0 0 0  0 0 0  0 0 0  0 0 0
0 0 0  0 0 0  0 0 0  0 0 0  65535 0 0  65535 65535 0
65535 65535 0  65535 65535 0  65535 65535 0  65535 65535 0  65535 65535 0  65535 65535 0
65535 65535 0  65535 65535 0  65535 65535 0  65535 65535 0  65535 65535 0  65535 65535 0
0 0 65535  0 0 65535  0 0 65535  0 0 65535
0 0 65535  65535 0 0  65535 65535 0  65535 65535 0  65535 65535 0  65535 65535 0
65535 65535 0  65535 65535 0  65535 65535 0  65535 65535 0  65535 65535 0  65535 65535 0
65535 65535 0  65535 65535 0  65535 65535 0  65535 65535 0  65535 65535 0  65535 65535 0
65535 0 0  0 0 0  0 0 0  0 0 0  0 0 0  0 0 0
0 0 0  0 0 0  0 0 0  0 0 0  0 0 0  0 0 0
0 0 0  0 0 0  0 0 0  0 0 0  65535 0 0  65535 65535 0
65535 65535 0  65535 65535 0  65535 65535 0  65535 65535 0  65535 65535 0  65535 65535 0
65535 65535 0  65535 65535 0  65535 65535 0  65535 65535 0  65535 0 0  0 0 65535
0 0 65535  0 0 65535  0 0 65535  0 0 65535
0 0 65535  0 0 65535  65535 0 0  65535 0 0  65535 65535 0  65535 65535 0
65535 65535 0  65535 65535 0  65535 65535 0  65535 65535 0  65535 65535 0  65535 65535 0
65535 65535 0  65535 65535 0  65535 65535 0  65535 65535 0  65535 65535 0  65535 65535 0
65535 0 0  0 0 0  0 0 0  0 0 0  0 0 0  0 0 0
0 0 0  0 0 0  0 0 0  0 0 0  0 0 0  0 0 0
0 0 0  0 0 0  0 0 0  0 0 0  65535 0 0  65535 65535 0
65535 65535 0  65535 65535 0  65535 65535 0  65535 65535 0  65535 65535 0  65535 65535 0
65535 65535 0  65535 65535 0  65535 0 0  0 0 65535  0 0 65535  0 0 65535
0 0 65535  0 0 65535  0 0 65535  0 0 65535
0 0 65535  0 0 65535  0 0 65535  0 0 65535  0 0 65535  0 0 65535
65535 0 0  65535 0 0  65535 0 0  65535 0 0  65535 65535 0  65535 65535 0
65535 65535 0  65535 65535 0  65535 65535 0  65535 65535 0  65535 65535 0  65535 0 0
0 0 65535  0 0 65535  0 0 65535  0 0 0  0 0 0  0 0 0
0 0 0  0 0 0  0 0 0  0 0 0  0 0 0  0 0 0
0 0 0  0 0 0  0 0 65535  0 0 65535  0 0 65535  65535 0 0
65535 65535 0  65535 65535 0  65535 65535 0  65535 65535 0  65535 65535 0  65535 65535 0
65535 0 0  0 0 65535  0 0 65535  0 0 65535  0 0 65535  0 0 65535
0 0 65535  0 0 65535  0 0 65535  0 0 65535
0 0 65535  0 0 65535  0 0 65535  0 0 65535  0 0 65535  0 0 65535
0 0 65535  0 0 65535  0 0 65535  0 0 65535  65535 0 0  65535 0 0
65535 0 0  65535 0 0  65535 0 0  65535 0 0  65535 0 0  0 0 65535
0 0 65535  0 0 65535  0 0 65535  0 0 65535  0 0 65535  0 0 65535
0 0 65535  0 0 65535  0 0 65535  0 0 65535  0 0 65535  0 0 65535
0 0 65535  0 0 65535  0 0 65535  0 0 65535  0 0 65535  65535 0 0
65535 0 0  65535 0 0  65535 65535 0  65535 0 0  65535 0 0  0 0 65535
0 0 65535  0 0 65535  0 0 65535  0 0 65535  0 0 65535  0 0 65535
0 0 65535  0 0 65535  0 0 65535  0 0 65535
0 0 65535  0 0 65535  0 0 65535  0 0 65535  0 0 65535  0 0 65535
0 0 65535  0 0 65535  0 0 65535  0 0 65535  0 0 65535  0 0 65535
0 0 65535  0 0 65535  65535 0 0  0 0 65535  0 0 65535  0 0 65535
0 0 65535  0 0 65535  0 0 65535  0 0 65535  0 0 65535  0 0 65535
0 0 65535  0 0 65535  0 0 65535  0 0 65535  0 0 65535  0 0 65535
0 0 65535  0 0 65535  0 0 65535  0 0 65535  0 0 65535  0 0 65535
65535 0 0  65535 0 0  65535 0 0  65535 0 0  0 0 65535  0 0 65535
0 0 65535  0 0 65535  0 0 65535  0 0 65535  0 0 65535  0 0 65535
0 0 65535  0 0 65535  0 0 65535  0 0 65535
0 0 65535  0 0 65535  0 0 65535  0 0 65535  0 0 65535  0 0 65535
0 0 65535  0 0 65535  0 0 65535  0 0 65535  0 0 65535  0 0 65535
0 0 65535  0 0 65535  0 0 65535  0 0 65535  0 0 65535  0 0 65535
0 0 65535  0 0 65535  0 0 65535  0 0 65535  0 0 65535  0 0 65535
0 0 65535  0 0 65535  0 0 65535  0 0 65535  0 0 65535  0 0 65535
0 0 65535  0 0 65535  0 0 65535  0 0 65535  0 0 65535  0 0 65535
0 0 65535  0 0 65535  0 0 65535  0 0 65535  0 0 65535  0 0 65535
0 0 65535  0 0 65535  0 0 65535  0 0 65535  0 0 65535  0 0 65535
0 0 65535  0 0 65535  0 0 65535  0 0 65535
