P3
17 16
65535
0 0 0  0 0 0  0 0 0  0 0 0  0 0 0  0 0 0
0 0 0  0 0 0  0 0 0  0 0 0  0 0 0  0 0 0
0 0 0  0 0 0  0 0 0  0 0 0  0 0 0
65535 0 0  65535 0 0  65535 0 0  65535 0 0  0 0 0  0 0 0
0 0 0  0 0 0  0 0 0  0 0 0  0 0 0  0 0 0
0 0 0  0 0 0  0 0 0  65535 0 0  0 0 0
0 0 0  65535 0 0  65535 0 0  65535 0 0  65535 0 0  0 0 0
0 0 0  0 0 0  0 0 0  0 0 0  0 0 0  0 0 0
0 0 0  0 0 0  65535 0 0  0 0 0  0 0 0
0 0 0  0 0 0  65535 0 0  65535 0 0  65535 0 0  65535 0 0
0 0 0  0 0 0  0 0 0  0 0 0  0 0 0  0 0 0
0 0 0  65535 0 0  0 0 0  0 0 0  0 0 0
0 0 0  0 0 0  0 0 0  65535 0 0  65535 0 0  65535 0 0
65535 0 0  0 0 0  0 0 0  0 0 0  0 0 0  0 0 0
65535 0 0  0 0 0  0 0 0  0 0 0  0 0 0
0 0 0  0 0 0  0 0 0  0 0 0  65535 0 0  65535 0 0
65535 0 0  65535 0 0  0 0 0  0 0 0  0 0 0  65535 0 0
0 0 0  0 0 0  0 0 0  0 0 0  0 0 0
0 0 0  0 0 0  0 0 0  0 0 0  0 0 0  65535 0 0
65535 0 0  65535 0 0  65535 0 0  0 0 0  65535 0 0  0 0 0
0 0 0  0 0 0  0 0 0  0 0 0  0 0 0
0 0 0  0 0 0  0 0 0  0 0 0  0 0 0  0 0 0
65535 0 0  65535 0 0  0 0 0  65535 0 0  65535 0 0  0 0 0
0 0 0  0 0 0  0 0 0  0 0 0  0 0 0
0 0 0  0 0 0  0 0 0  0 0 0  0 0 0  0 0 0
65535 0 0  0 0 0  65535 0 0  65535 0 0  65535 0 0  65535 0 0
0 0 0  0 0 0  0 0 0  0 0 0  0 0 0
0 0 0  0 0 0  0 0 0  0 0 0  0 0 0  65535 0 0
0 0 0  0 0 0  0 0 0  65535 0 0  65535 0 0  65535 0 0
65535 0 0  0 0 0  0 0 0  0 0 0  0 0 0
0 0 0  0 0 0  0 0 0  0 0 0  65535 0 0  0 0 0
0 0 0  0 0 0  0 0 0  0 0 0  65535 0 0  65535 0 0
65535 0 0  65535 0 0  0 0 0  0 0 0  0 0 0
0 0 0  0 0 0  0 0 0  65535 0 0  0 0 0  0 0 0
0 0 0  0 0 0  0 0 0  0 0 0  0 0 0  65535 0 0
65535 0 0  65535 0 0  65535 0 0  0 0 0  0 0 0
0 0 0  0 0 0  65535 0 0  0 0 0  0 0 0  0 0 0
0 0 0  0 0 0  0 0 0  0 0 0  0 0 0  0 0 0
65535 0 0  65535 0 0  65535 0 0  65535 0 0  0 0 0
0 0 0  65535 0 0  0 0 0  0 0 0  0 0 0  0 0 0
0 0 0  0 0 0  0 0 0  0 0 0  0 0 0  0 0 0
0 0 0  65535 0 0  65535 0 0  65535 0 0  65535 0 0
0 0 0  0 0 0  0 0 0  0 0 0  0 0 0  0 0 0
0 0 0  0 0 0  0 0 0  0 0 0  0 0 0  0 0 0
0 0 0  0 0 0  0 0 0  0 0 0  0 0 0
0 0 0  0 0 0  0 0 0  0 0 0  0 0 0  0 0 0
0 0 0  0 0 0  0 0 0  0 0 0  0 0 0  0 0 0
0 0 0  0 0 0  0 0 0  0 0 0  0 0 0
