/* XPM */
static char *noname[] = {
/* width height ncolors chars_per_pixel */
"17 16 2 1",
/* colors */
"` c #000000",
"a c #FF0000",
/* pixels */
"`````````````````",
"aaaa```````````a`",
"`aaaa`````````a``",
"``aaaa```````a```",
"```aaaa`````a````",
"````aaaa```a`````",
"`````aaaa`a``````",
"``````aa`aa``````",
"``````a`aaaa`````",
"`````a```aaaa````",
"````a`````aaaa```",
"```a```````aaaa``",
"``a`````````aaaa`",
"`a```````````aaaa",
"`````````````````",
"`````````````````"
};
